<?xml version="1.0" standalone="no"?>
<!DOCTYPE svg PUBLIC "-//W3C//DTD SVG 20010904//EN"
 "http://www.w3.org/TR/2001/REC-SVG-20010904/DTD/svg10.dtd">
<svg version="1.0" xmlns="http://www.w3.org/2000/svg"
 width="500.000000pt" height="500.000000pt" viewBox="0 0 500.000000 500.000000"
 preserveAspectRatio="xMidYMid meet">
<metadata>
Created by potrace 1.14, written by Peter Selinger 2001-2017
</metadata>
<g transform="translate(0.000000,500.000000) scale(0.100000,-0.100000)"
fill="#000000" stroke="none">
<path d="M694 3537 c-49 -35 -168 -119 -264 -186 -96 -68 -179 -127 -184 -132
-6 -5 226 -9 548 -9 l558 0 -275 195 c-152 107 -280 195 -285 195 -5 0 -49
-28 -98 -63z"/>
<path d="M1646 3407 l-269 -192 277 -3 c152 -1 401 -1 553 0 l278 3 -273 193
c-150 105 -278 192 -285 191 -6 0 -133 -87 -281 -192z"/>
<path d="M2930 3509 c-69 -49 -191 -136 -271 -192 l-146 -102 273 -3 c150 -1
400 -1 555 0 l283 3 -272 193 c-149 105 -277 192 -284 191 -7 0 -69 -41 -138
-90z"/>
<path d="M3924 3407 l-271 -192 273 -3 c150 -1 400 -1 555 0 l282 3 -267 188
c-146 104 -274 191 -284 193 -10 2 -127 -75 -288 -189z"/>
<path d="M227 3113 c-4 -3 -7 -258 -7 -565 l0 -558 68 0 67 0 -2 552 c-2 304
-3 559 -3 566 0 13 -111 18 -123 5z"/>
<path d="M620 2893 c0 -222 0 -227 19 -208 53 57 351 416 351 424 0 5 -79 10
-185 11 l-185 1 0 -228z"/>
<path d="M1217 2997 c-196 -229 -347 -410 -347 -417 0 -3 79 -96 176 -206 97
-109 213 -241 258 -291 l81 -93 53 0 52 0 -2 563 -3 562 -82 2 -82 1 -104
-121z"/>
<path d="M1750 2895 l0 -225 180 0 180 0 0 225 0 225 -180 0 -180 0 0 -225z"/>
<path d="M2370 2555 l0 -565 373 0 372 0 -3 110 -3 110 -280 0 -279 0 0 38 c0
32 36 90 261 427 143 215 267 402 275 418 l15 27 -366 0 -365 0 0 -565z"/>
<path d="M3358 2780 l3 -340 64 0 65 0 0 -115 0 -115 -65 0 -65 0 0 -110 0
-110 129 0 129 0 40 98 c80 193 412 1021 412 1026 0 3 -161 6 -357 6 l-358 0
3 -340z"/>
<path d="M4329 3073 c10 -27 92 -228 181 -448 89 -220 183 -453 208 -517 26
-65 50 -118 55 -118 4 0 6 253 5 563 l-3 562 -232 3 -233 2 19 -47z"/>
<path d="M3008 2599 l-96 -154 95 -3 c53 -1 97 -1 100 1 2 2 2 73 1 157 l-3
154 -97 -155z"/>
<path d="M4187 2743 c-14 -23 -118 -305 -114 -309 2 -3 58 -3 124 -2 l120 3
-59 155 c-63 165 -63 166 -71 153z"/>
<path d="M620 2222 l0 -232 201 0 c157 0 199 3 193 13 -9 13 -332 386 -370
427 l-24 25 0 -233z"/>
<path d="M1750 2215 l0 -225 180 0 180 0 0 225 0 225 -180 0 -180 0 0 -225z"/>
<path d="M3940 2103 c-19 -53 -36 -101 -38 -105 -2 -4 127 -8 287 -8 160 0
291 3 291 7 0 3 -16 51 -36 105 l-36 98 -217 0 -217 0 -34 -97z"/>
<path d="M3587 1949 c-24 -14 -47 -69 -47 -109 0 -20 -5 -30 -15 -30 -9 0 -15
-9 -15 -25 0 -14 7 -28 15 -31 11 -5 15 -24 15 -80 l0 -74 35 0 35 0 0 75 c0
73 1 75 25 75 21 0 25 5 25 30 0 25 -4 30 -25 30 -20 0 -25 5 -25 24 0 37 10
56 31 56 21 0 45 38 32 51 -15 15 -67 20 -86 8z"/>
<path d="M4580 1775 l2 -175 39 0 39 0 0 175 0 175 -40 0 -41 0 1 -175z"/>
<path d="M4710 1775 l0 -175 35 0 35 0 0 175 0 175 -35 0 -35 0 0 -175z"/>
<path d="M227 1933 c-4 -3 -7 -80 -7 -170 l0 -163 40 0 40 0 0 68 1 67 63 -68
62 -68 49 3 49 3 -76 86 -77 86 64 74 c36 41 65 77 65 82 0 4 -19 7 -42 7 -41
0 -46 -3 -100 -71 l-58 -71 0 71 0 71 -33 0 c-19 0 -37 -3 -40 -7z"/>
<path d="M558 1929 c-24 -14 -23 -56 2 -69 42 -22 82 34 48 68 -14 14 -27 15
-50 1z"/>
<path d="M1700 1770 l0 -170 35 0 34 0 3 68 3 67 53 0 52 1 0 -68 0 -68 40 0
40 0 0 171 0 170 -37 -3 -38 -3 -3 -67 -3 -68 -54 0 -55 0 0 70 0 70 -35 0
-35 0 0 -170z"/>
<path d="M2758 1929 c-24 -14 -23 -56 2 -69 42 -22 82 34 48 68 -14 14 -27 15
-50 1z"/>
<path d="M4355 1908 c-7 -18 -38 -95 -68 -170 l-55 -138 42 0 c40 0 44 2 52
33 10 31 11 32 75 35 l65 3 12 -36 c12 -32 17 -35 54 -35 34 0 39 3 34 18 -4
9 -35 86 -68 170 l-62 152 -33 0 c-29 0 -36 -5 -48 -32z m78 -170 c-6 -12 -63
-10 -63 2 0 5 7 28 17 51 l16 42 18 -44 c9 -24 15 -47 12 -51z"/>
<path d="M680 1850 c0 -29 -4 -40 -15 -40 -10 0 -15 -10 -15 -30 0 -20 5 -30
15 -30 12 0 15 -13 15 -57 0 -32 4 -63 8 -70 20 -32 120 -37 108 -6 -3 8 -6
21 -6 29 0 8 -9 14 -20 14 -17 0 -20 7 -20 45 0 38 3 45 20 45 16 0 20 7 20
30 0 23 -4 30 -20 30 -17 0 -20 7 -20 40 0 39 -1 40 -35 40 -34 0 -35 -1 -35
-40z"/>
<path d="M887 1810 c-41 -13 -57 -29 -57 -60 0 -29 39 -70 66 -70 8 0 14 -7
14 -15 0 -17 -23 -20 -51 -5 -16 9 -21 6 -31 -15 -10 -22 -9 -28 3 -36 16 -10
49 -13 94 -10 82 7 90 105 10 131 -45 15 -45 30 0 30 24 0 37 6 45 19 8 16 6
21 -13 26 -42 12 -52 13 -80 5z"/>
<path d="M1098 1812 c-65 -8 -104 -91 -72 -157 24 -52 69 -70 124 -51 22 7 40
10 40 5 0 -5 16 -9 35 -9 l35 0 0 106 0 107 -47 -6 c-26 -3 -56 -2 -67 2 -12
4 -33 5 -48 3z m82 -88 c14 -36 -3 -64 -38 -64 -33 0 -52 16 -52 45 0 29 19
45 52 45 21 0 31 -6 38 -26z"/>
<path d="M1425 1812 c-11 -2 -26 -9 -32 -14 -9 -7 -13 -7 -13 1 0 6 -16 11
-35 11 l-35 0 0 -160 0 -160 35 0 35 0 0 60 c0 33 1 60 3 60 1 0 17 -4 36 -10
42 -12 92 7 117 44 21 34 14 110 -13 137 -22 22 -69 37 -98 31z m44 -84 c12
-34 -2 -63 -33 -66 -33 -4 -56 13 -56 42 0 30 18 46 52 46 21 0 31 -6 37 -22z"/>
<path d="M2083 1809 c-86 -18 -120 -121 -59 -178 74 -70 216 -28 216 64 0 43
-22 90 -47 100 -38 16 -79 21 -110 14z m77 -85 c14 -36 -3 -64 -38 -64 -33 0
-52 16 -52 45 0 29 19 45 52 45 21 0 31 -6 38 -26z"/>
<path d="M2610 1812 c-76 -11 -85 -98 -13 -124 18 -7 33 -18 33 -26 0 -13 -14
-14 -58 -1 -8 2 -21 -6 -29 -19 -15 -21 -14 -23 21 -37 67 -28 146 4 146 58 0
27 -18 46 -70 73 l-35 19 42 3 c39 3 61 22 48 42 -6 10 -52 16 -85 12z"/>
<path d="M2972 1804 c-18 -7 -32 -9 -32 -4 0 6 -16 10 -35 10 l-35 0 0 -105 0
-105 35 0 35 0 0 64 c0 65 14 96 44 96 26 0 36 -26 36 -92 l0 -68 35 0 35 0 0
83 c0 51 -5 90 -12 100 -20 27 -70 37 -106 21z"/>
<path d="M3205 1812 c-59 -12 -94 -90 -69 -152 22 -55 80 -78 142 -57 28 10
30 -12 4 -36 -23 -21 -52 -22 -77 -3 -17 12 -23 12 -47 0 -15 -8 -25 -20 -22
-27 9 -26 62 -47 114 -47 46 0 56 4 86 34 l34 34 0 126 0 126 -35 0 c-19 0
-35 -5 -35 -11 0 -5 -5 -7 -10 -4 -20 12 -65 21 -85 17z m86 -83 c8 -16 8 -28
0 -46 -9 -19 -17 -24 -43 -21 -40 4 -56 28 -40 62 15 34 66 37 83 5z"/>
<path d="M540 1705 l0 -105 35 0 35 0 0 105 0 105 -35 0 -35 0 0 -105z"/>
<path d="M2270 1747 c0 -73 14 -123 39 -136 31 -16 96 -20 131 -8 46 16 60 47
60 135 l0 72 -35 0 -35 0 0 -64 c0 -64 -14 -96 -43 -96 -30 1 -38 19 -40 86
l-2 69 -37 3 -38 3 0 -64z"/>
<path d="M2747 1803 c-4 -3 -7 -51 -7 -105 l0 -98 40 0 40 0 0 105 0 105 -33
0 c-19 0 -37 -3 -40 -7z"/>
<path d="M3721 1796 c-54 -30 -69 -119 -27 -161 70 -70 205 -40 222 50 7 38
-14 86 -48 109 -27 20 -114 21 -147 2z m107 -58 c7 -7 12 -21 12 -33 0 -29
-19 -45 -52 -45 -34 0 -55 39 -38 71 12 22 59 26 78 7z"/>
<path d="M3950 1705 l0 -105 35 0 35 0 0 58 c0 72 15 96 58 90 25 -3 32 0 41
19 6 13 11 28 11 33 0 15 -74 12 -89 -2 -11 -10 -14 -10 -18 0 -3 6 -20 12
-39 12 l-34 0 0 -105z"/>
</g>
</svg>
